<mxfile host="Electron" modified="2023-08-22T13:46:39.663Z" agent="Mozilla/5.0 (Windows NT 10.0; Win64; x64) AppleWebKit/537.36 (KHTML, like Gecko) draw.io/21.6.8 Chrome/114.0.5735.289 Electron/25.5.0 Safari/537.36" etag="YIYalQCXgW99DsxzSsCn" version="21.6.8" type="device" pages="3">
  <diagram id="wRjVFQ-GtE0xNQkUG2_W" name="17.28">
    <mxGraphModel dx="880" dy="545" grid="1" gridSize="10" guides="1" tooltips="1" connect="1" arrows="1" fold="1" page="1" pageScale="1" pageWidth="1169" pageHeight="827" math="0" shadow="0">
      <root>
        <mxCell id="0" />
        <mxCell id="1" value="uml" parent="0" />
        <mxCell id="CctPYty2IZTSp37HsIw8-1" value="&lt;b&gt;sd&lt;/b&gt; UserAcc_User" style="shape=umlFrame;whiteSpace=wrap;html=1;pointerEvents=0;recursiveResize=0;container=1;collapsible=0;width=130;height=30;" vertex="1" parent="1">
          <mxGeometry x="10" y="80" width="440" height="270" as="geometry" />
        </mxCell>
        <mxCell id="CctPYty2IZTSp37HsIw8-3" value=":User" style="text;html=1;align=center;verticalAlign=middle;resizable=0;points=[];autosize=1;strokeColor=none;fillColor=none;rotation=270;fontStyle=1" vertex="1" parent="CctPYty2IZTSp37HsIw8-1">
          <mxGeometry y="120" width="50" height="30" as="geometry" />
        </mxCell>
        <mxCell id="CctPYty2IZTSp37HsIw8-4" value="" style="edgeStyle=segmentEdgeStyle;endArrow=none;html=1;curved=0;rounded=0;endSize=8;startSize=8;sourcePerimeterSpacing=0;targetPerimeterSpacing=0;endFill=0;" edge="1" parent="CctPYty2IZTSp37HsIw8-1">
          <mxGeometry width="100" relative="1" as="geometry">
            <mxPoint x="140" y="220" as="sourcePoint" />
            <mxPoint x="420" y="220" as="targetPoint" />
            <Array as="points">
              <mxPoint x="190" y="220" />
              <mxPoint x="190" y="160" />
              <mxPoint x="300" y="160" />
              <mxPoint x="300" y="80" />
              <mxPoint x="340" y="80" />
              <mxPoint x="340" y="220" />
              <mxPoint x="420" y="220" />
            </Array>
          </mxGeometry>
        </mxCell>
        <mxCell id="CctPYty2IZTSp37HsIw8-5" value="WaitAccess" style="text;html=1;align=center;verticalAlign=middle;resizable=0;points=[];autosize=1;strokeColor=none;fillColor=none;fontSize=14;" vertex="1" parent="CctPYty2IZTSp37HsIw8-1">
          <mxGeometry x="35" y="70" width="100" height="30" as="geometry" />
        </mxCell>
        <mxCell id="CctPYty2IZTSp37HsIw8-6" value="WaitCard" style="text;html=1;align=center;verticalAlign=middle;resizable=0;points=[];autosize=1;strokeColor=none;fillColor=none;fontSize=14;" vertex="1" parent="CctPYty2IZTSp37HsIw8-1">
          <mxGeometry x="45" y="145" width="80" height="30" as="geometry" />
        </mxCell>
        <mxCell id="CctPYty2IZTSp37HsIw8-7" value="Idle" style="text;html=1;align=center;verticalAlign=middle;resizable=0;points=[];autosize=1;strokeColor=none;fillColor=none;fontSize=14;" vertex="1" parent="CctPYty2IZTSp37HsIw8-1">
          <mxGeometry x="60" y="206" width="50" height="30" as="geometry" />
        </mxCell>
        <mxCell id="CctPYty2IZTSp37HsIw8-11" value="Code" style="text;html=1;align=center;verticalAlign=middle;resizable=0;points=[];autosize=1;strokeColor=none;fillColor=none;" vertex="1" parent="CctPYty2IZTSp37HsIw8-1">
          <mxGeometry x="165" y="220" width="50" height="30" as="geometry" />
        </mxCell>
        <mxCell id="CctPYty2IZTSp37HsIw8-12" value="CardOut" style="text;html=1;align=center;verticalAlign=middle;resizable=0;points=[];autosize=1;strokeColor=none;fillColor=none;" vertex="1" parent="CctPYty2IZTSp37HsIw8-1">
          <mxGeometry x="270" y="160" width="70" height="30" as="geometry" />
        </mxCell>
        <mxCell id="CctPYty2IZTSp37HsIw8-13" value="OK {t..t+3}" style="text;html=1;align=center;verticalAlign=middle;resizable=0;points=[];autosize=1;strokeColor=none;fillColor=none;" vertex="1" parent="CctPYty2IZTSp37HsIw8-1">
          <mxGeometry x="310" y="220" width="80" height="30" as="geometry" />
        </mxCell>
        <mxCell id="CctPYty2IZTSp37HsIw8-8" value="{d..3*d}" style="edgeStyle=none;orthogonalLoop=1;jettySize=auto;html=1;endArrow=openThin;startArrow=openThin;endSize=8;startSize=8;rounded=0;verticalAlign=bottom;endFill=0;startFill=0;" edge="1" parent="1">
          <mxGeometry width="100" relative="1" as="geometry">
            <mxPoint x="200" y="140" as="sourcePoint" />
            <mxPoint x="310" y="140" as="targetPoint" />
            <Array as="points" />
          </mxGeometry>
        </mxCell>
        <mxCell id="CctPYty2IZTSp37HsIw8-9" value="" style="edgeStyle=none;orthogonalLoop=1;jettySize=auto;html=1;rounded=0;endArrow=none;endFill=0;" edge="1" parent="1">
          <mxGeometry width="100" relative="1" as="geometry">
            <mxPoint x="310" y="123" as="sourcePoint" />
            <mxPoint x="310" y="153" as="targetPoint" />
            <Array as="points" />
          </mxGeometry>
        </mxCell>
        <mxCell id="CctPYty2IZTSp37HsIw8-10" value="" style="edgeStyle=none;orthogonalLoop=1;jettySize=auto;html=1;rounded=0;endArrow=none;endFill=0;" edge="1" parent="1">
          <mxGeometry width="100" relative="1" as="geometry">
            <mxPoint x="200" y="123" as="sourcePoint" />
            <mxPoint x="200" y="153" as="targetPoint" />
            <Array as="points" />
          </mxGeometry>
        </mxCell>
        <mxCell id="CctPYty2IZTSp37HsIw8-14" value="" style="edgeStyle=none;orthogonalLoop=1;jettySize=auto;html=1;rounded=0;endArrow=none;endFill=0;" edge="1" parent="1">
          <mxGeometry width="100" relative="1" as="geometry">
            <mxPoint x="310" y="336" as="sourcePoint" />
            <mxPoint x="310" y="366" as="targetPoint" />
            <Array as="points" />
          </mxGeometry>
        </mxCell>
        <mxCell id="CctPYty2IZTSp37HsIw8-15" value="" style="edgeStyle=none;orthogonalLoop=1;jettySize=auto;html=1;rounded=0;endArrow=none;endFill=0;" edge="1" parent="1">
          <mxGeometry width="100" relative="1" as="geometry">
            <mxPoint x="350" y="336" as="sourcePoint" />
            <mxPoint x="350" y="366" as="targetPoint" />
            <Array as="points" />
          </mxGeometry>
        </mxCell>
        <mxCell id="CctPYty2IZTSp37HsIw8-16" value="" style="edgeStyle=none;orthogonalLoop=1;jettySize=auto;html=1;rounded=0;endArrow=none;endFill=0;" edge="1" parent="1">
          <mxGeometry width="100" relative="1" as="geometry">
            <mxPoint x="370" y="336" as="sourcePoint" />
            <mxPoint x="370" y="366" as="targetPoint" />
            <Array as="points" />
          </mxGeometry>
        </mxCell>
        <mxCell id="CctPYty2IZTSp37HsIw8-17" value="" style="edgeStyle=none;orthogonalLoop=1;jettySize=auto;html=1;rounded=0;endArrow=none;endFill=0;" edge="1" parent="1">
          <mxGeometry width="100" relative="1" as="geometry">
            <mxPoint x="330" y="336" as="sourcePoint" />
            <mxPoint x="330" y="366" as="targetPoint" />
            <Array as="points" />
          </mxGeometry>
        </mxCell>
        <mxCell id="CctPYty2IZTSp37HsIw8-18" value="t" style="text;html=1;align=center;verticalAlign=middle;resizable=0;points=[];autosize=1;strokeColor=none;fillColor=none;" vertex="1" parent="1">
          <mxGeometry x="315" y="363" width="30" height="30" as="geometry" />
        </mxCell>
        <mxCell id="CctPYty2IZTSp37HsIw8-19" value="" style="edgeStyle=none;orthogonalLoop=1;jettySize=auto;html=1;rounded=0;endArrow=none;endFill=0;" edge="1" parent="1">
          <mxGeometry width="100" relative="1" as="geometry">
            <mxPoint x="180" y="336" as="sourcePoint" />
            <mxPoint x="180" y="366" as="targetPoint" />
            <Array as="points" />
          </mxGeometry>
        </mxCell>
        <mxCell id="CctPYty2IZTSp37HsIw8-20" value="" style="edgeStyle=none;orthogonalLoop=1;jettySize=auto;html=1;rounded=0;endArrow=none;endFill=0;" edge="1" parent="1">
          <mxGeometry width="100" relative="1" as="geometry">
            <mxPoint x="200" y="336" as="sourcePoint" />
            <mxPoint x="200" y="366" as="targetPoint" />
            <Array as="points" />
          </mxGeometry>
        </mxCell>
        <mxCell id="CctPYty2IZTSp37HsIw8-21" value="" style="edgeStyle=none;orthogonalLoop=1;jettySize=auto;html=1;rounded=0;endArrow=none;endFill=0;" edge="1" parent="1">
          <mxGeometry width="100" relative="1" as="geometry">
            <mxPoint x="160" y="336" as="sourcePoint" />
            <mxPoint x="160" y="366" as="targetPoint" />
            <Array as="points" />
          </mxGeometry>
        </mxCell>
        <mxCell id="CctPYty2IZTSp37HsIw8-22" value="0" style="text;html=1;align=center;verticalAlign=middle;resizable=0;points=[];autosize=1;strokeColor=none;fillColor=none;" vertex="1" parent="1">
          <mxGeometry x="145" y="368" width="30" height="30" as="geometry" />
        </mxCell>
        <mxCell id="CctPYty2IZTSp37HsIw8-23" value="1" style="text;html=1;align=center;verticalAlign=middle;resizable=0;points=[];autosize=1;strokeColor=none;fillColor=none;" vertex="1" parent="1">
          <mxGeometry x="165" y="368" width="30" height="30" as="geometry" />
        </mxCell>
        <mxCell id="CctPYty2IZTSp37HsIw8-24" value="2" style="text;html=1;align=center;verticalAlign=middle;resizable=0;points=[];autosize=1;strokeColor=none;fillColor=none;" vertex="1" parent="1">
          <mxGeometry x="185" y="368" width="30" height="30" as="geometry" />
        </mxCell>
        <mxCell id="CctPYty2IZTSp37HsIw8-25" value="&lt;b&gt;Figure 17.28 A Lifeline for a discrete object&lt;/b&gt;" style="text;html=1;align=left;verticalAlign=middle;resizable=0;points=[];autosize=1;strokeColor=none;fillColor=none;fontSize=11;fontFamily=Helvetica;fontColor=default;" vertex="1" parent="1">
          <mxGeometry x="10" y="430" width="250" height="30" as="geometry" />
        </mxCell>
        <mxCell id="CctPYty2IZTSp37HsIw8-28" value="annotation" parent="0" />
        <mxCell id="CctPYty2IZTSp37HsIw8-29" value="" style="rounded=0;orthogonalLoop=1;jettySize=auto;html=1;endArrow=blockThin;endFill=0;endSize=12;strokeColor=#FF0000;" edge="1" parent="CctPYty2IZTSp37HsIw8-28" source="CctPYty2IZTSp37HsIw8-30">
          <mxGeometry relative="1" as="geometry">
            <mxPoint x="39" y="181" as="targetPoint" />
            <mxPoint x="86" y="80" as="sourcePoint" />
          </mxGeometry>
        </mxCell>
        <mxCell id="CctPYty2IZTSp37HsIw8-30" value="Lifeline" style="text;html=1;align=left;verticalAlign=middle;resizable=0;points=[];autosize=1;strokeColor=none;fillColor=none;fontColor=#FF0000;fontStyle=2;fontSize=12;container=0;" vertex="1" parent="CctPYty2IZTSp37HsIw8-28">
          <mxGeometry x="70" y="10" width="60" height="30" as="geometry" />
        </mxCell>
        <mxCell id="CctPYty2IZTSp37HsIw8-32" value="State or condition" style="text;html=1;align=left;verticalAlign=middle;resizable=0;points=[];autosize=1;strokeColor=none;fillColor=none;fontColor=#FF0000;fontStyle=2;fontSize=12;container=0;" vertex="1" parent="CctPYty2IZTSp37HsIw8-28">
          <mxGeometry x="140" y="10" width="120" height="30" as="geometry" />
        </mxCell>
        <mxCell id="CctPYty2IZTSp37HsIw8-33" value="" style="rounded=0;orthogonalLoop=1;jettySize=auto;html=1;endArrow=blockThin;endFill=0;endSize=12;strokeColor=#FF0000;" edge="1" source="CctPYty2IZTSp37HsIw8-32" parent="CctPYty2IZTSp37HsIw8-28">
          <mxGeometry relative="1" as="geometry">
            <mxPoint x="99" y="161" as="targetPoint" />
            <mxPoint x="146" y="60" as="sourcePoint" />
          </mxGeometry>
        </mxCell>
        <mxCell id="CctPYty2IZTSp37HsIw8-35" value="DurationConstraint" style="text;html=1;align=left;verticalAlign=middle;resizable=0;points=[];autosize=1;strokeColor=none;fillColor=none;fontColor=#FF0000;fontStyle=2;fontSize=12;container=0;" vertex="1" parent="CctPYty2IZTSp37HsIw8-28">
          <mxGeometry x="290" y="10" width="120" height="30" as="geometry" />
        </mxCell>
        <mxCell id="CctPYty2IZTSp37HsIw8-36" value="" style="rounded=0;orthogonalLoop=1;jettySize=auto;html=1;endArrow=blockThin;endFill=0;endSize=12;strokeColor=#FF0000;" edge="1" source="CctPYty2IZTSp37HsIw8-35" parent="CctPYty2IZTSp37HsIw8-28">
          <mxGeometry relative="1" as="geometry">
            <mxPoint x="256" y="120" as="targetPoint" />
            <mxPoint x="296" y="60" as="sourcePoint" />
          </mxGeometry>
        </mxCell>
        <mxCell id="CctPYty2IZTSp37HsIw8-37" value="time constraint" style="text;html=1;align=left;verticalAlign=middle;resizable=0;points=[];autosize=1;strokeColor=none;fillColor=none;fontColor=#FF0000;fontStyle=2;fontSize=12;container=0;" vertex="1" parent="CctPYty2IZTSp37HsIw8-28">
          <mxGeometry x="410" y="10" width="100" height="30" as="geometry" />
        </mxCell>
        <mxCell id="CctPYty2IZTSp37HsIw8-38" value="" style="rounded=0;orthogonalLoop=1;jettySize=auto;html=1;endArrow=blockThin;endFill=0;endSize=12;strokeColor=#FF0000;" edge="1" source="CctPYty2IZTSp37HsIw8-37" parent="CctPYty2IZTSp37HsIw8-28">
          <mxGeometry relative="1" as="geometry">
            <mxPoint x="388" y="301" as="targetPoint" />
            <mxPoint x="416" y="60" as="sourcePoint" />
          </mxGeometry>
        </mxCell>
        <mxCell id="CctPYty2IZTSp37HsIw8-39" value="timing ruler" style="text;html=1;align=left;verticalAlign=middle;resizable=0;points=[];autosize=1;strokeColor=none;fillColor=none;fontColor=#FF0000;fontStyle=2;fontSize=12;container=0;" vertex="1" parent="CctPYty2IZTSp37HsIw8-28">
          <mxGeometry x="360" y="394" width="80" height="30" as="geometry" />
        </mxCell>
        <mxCell id="CctPYty2IZTSp37HsIw8-40" value="" style="rounded=0;orthogonalLoop=1;jettySize=auto;html=1;endArrow=blockThin;endFill=0;endSize=12;strokeColor=#FF0000;exitX=-0.05;exitY=0.5;exitDx=0;exitDy=0;exitPerimeter=0;" edge="1" source="CctPYty2IZTSp37HsIw8-39" parent="CctPYty2IZTSp37HsIw8-28">
          <mxGeometry relative="1" as="geometry">
            <mxPoint x="351" y="371" as="targetPoint" />
            <mxPoint x="432" y="190" as="sourcePoint" />
          </mxGeometry>
        </mxCell>
        <mxCell id="CctPYty2IZTSp37HsIw8-41" value="tick mark values" style="text;html=1;align=left;verticalAlign=middle;resizable=0;points=[];autosize=1;strokeColor=none;fillColor=none;fontColor=#FF0000;fontStyle=2;fontSize=12;container=0;" vertex="1" parent="CctPYty2IZTSp37HsIw8-28">
          <mxGeometry x="219" y="394" width="110" height="30" as="geometry" />
        </mxCell>
        <mxCell id="CctPYty2IZTSp37HsIw8-42" value="" style="rounded=0;orthogonalLoop=1;jettySize=auto;html=1;endArrow=blockThin;endFill=0;endSize=12;strokeColor=#FF0000;exitX=-0.05;exitY=0.5;exitDx=0;exitDy=0;exitPerimeter=0;" edge="1" source="CctPYty2IZTSp37HsIw8-41" parent="CctPYty2IZTSp37HsIw8-28">
          <mxGeometry relative="1" as="geometry">
            <mxPoint x="186" y="389" as="targetPoint" />
            <mxPoint x="291" y="190" as="sourcePoint" />
          </mxGeometry>
        </mxCell>
        <mxCell id="CctPYty2IZTSp37HsIw8-44" value="event or stimulus" style="text;html=1;align=left;verticalAlign=middle;resizable=0;points=[];autosize=1;strokeColor=none;fillColor=none;fontColor=#FF0000;fontStyle=2;fontSize=12;container=0;" vertex="1" parent="CctPYty2IZTSp37HsIw8-28">
          <mxGeometry x="19" y="394" width="110" height="30" as="geometry" />
        </mxCell>
        <mxCell id="CctPYty2IZTSp37HsIw8-45" value="" style="rounded=0;orthogonalLoop=1;jettySize=auto;html=1;endArrow=blockThin;endFill=0;endSize=12;strokeColor=#FF0000;exitX=0.882;exitY=0.033;exitDx=0;exitDy=0;exitPerimeter=0;" edge="1" source="CctPYty2IZTSp37HsIw8-44" parent="CctPYty2IZTSp37HsIw8-28">
          <mxGeometry relative="1" as="geometry">
            <mxPoint x="180" y="314" as="targetPoint" />
            <mxPoint x="91" y="210" as="sourcePoint" />
          </mxGeometry>
        </mxCell>
      </root>
    </mxGraphModel>
  </diagram>
  <diagram name="17.29" id="CWOyhI8UQmGbBIaPtDwH">
    <mxGraphModel dx="880" dy="545" grid="1" gridSize="10" guides="1" tooltips="1" connect="1" arrows="1" fold="1" page="1" pageScale="1" pageWidth="1169" pageHeight="827" math="0" shadow="0">
      <root>
        <mxCell id="0" />
        <mxCell id="1" value="uml" parent="0" />
        <mxCell id="FQmdJtYdo-Q5KJxosytU-1" value="&lt;b&gt;sd&lt;/b&gt; UserAcc_User" style="shape=umlFrame;whiteSpace=wrap;html=1;pointerEvents=0;recursiveResize=0;container=1;collapsible=0;width=120;height=30;" vertex="1" parent="1">
          <mxGeometry x="80" y="80" width="440" height="150" as="geometry" />
        </mxCell>
        <mxCell id="FQmdJtYdo-Q5KJxosytU-2" value=":User" style="text;html=1;align=center;verticalAlign=middle;resizable=0;points=[];autosize=1;strokeColor=none;fillColor=none;rotation=0;fontStyle=1" vertex="1" parent="FQmdJtYdo-Q5KJxosytU-1">
          <mxGeometry x="20" y="84" width="50" height="30" as="geometry" />
        </mxCell>
        <mxCell id="FQmdJtYdo-Q5KJxosytU-4" value="WaitAccess" style="text;html=1;align=center;verticalAlign=middle;resizable=0;points=[];autosize=1;strokeColor=none;fillColor=none;fontSize=14;" vertex="1" parent="1">
          <mxGeometry x="356" y="164" width="100" height="30" as="geometry" />
        </mxCell>
        <mxCell id="FQmdJtYdo-Q5KJxosytU-5" value="WaitCard" style="text;html=1;align=center;verticalAlign=middle;resizable=0;points=[];autosize=1;strokeColor=none;fillColor=none;fontSize=14;" vertex="1" parent="1">
          <mxGeometry x="257" y="164" width="80" height="30" as="geometry" />
        </mxCell>
        <mxCell id="FQmdJtYdo-Q5KJxosytU-6" value="Idle" style="text;html=1;align=center;verticalAlign=middle;resizable=0;points=[];autosize=1;strokeColor=none;fillColor=none;fontSize=14;" vertex="1" parent="1">
          <mxGeometry x="170" y="164" width="50" height="30" as="geometry" />
        </mxCell>
        <mxCell id="Ig4POHQgUYnZKCr3auaQ-1" value="{d..3*d}" style="edgeStyle=none;orthogonalLoop=1;jettySize=auto;html=1;endArrow=openThin;startArrow=openThin;endSize=8;startSize=8;rounded=0;verticalAlign=bottom;endFill=0;startFill=0;" edge="1" parent="1">
          <mxGeometry width="100" relative="1" as="geometry">
            <mxPoint x="240" y="120" as="sourcePoint" />
            <mxPoint x="360" y="120" as="targetPoint" />
            <Array as="points" />
          </mxGeometry>
        </mxCell>
        <mxCell id="Ig4POHQgUYnZKCr3auaQ-2" value="" style="edgeStyle=none;orthogonalLoop=1;jettySize=auto;html=1;rounded=0;endArrow=none;endFill=0;" edge="1" parent="1">
          <mxGeometry width="100" relative="1" as="geometry">
            <mxPoint x="360" y="103" as="sourcePoint" />
            <mxPoint x="360" y="133" as="targetPoint" />
            <Array as="points" />
          </mxGeometry>
        </mxCell>
        <mxCell id="Ig4POHQgUYnZKCr3auaQ-3" value="" style="edgeStyle=none;orthogonalLoop=1;jettySize=auto;html=1;rounded=0;endArrow=none;endFill=0;" edge="1" parent="1">
          <mxGeometry width="100" relative="1" as="geometry">
            <mxPoint x="240" y="103" as="sourcePoint" />
            <mxPoint x="240" y="133" as="targetPoint" />
            <Array as="points" />
          </mxGeometry>
        </mxCell>
        <mxCell id="Ig4POHQgUYnZKCr3auaQ-5" value="" style="endArrow=none;html=1;rounded=0;align=center;verticalAlign=bottom;endFill=0;labelBackgroundColor=none;strokeColor=default;fontFamily=Helvetica;fontSize=11;fontColor=default;endSize=12;shape=connector;" edge="1" parent="1">
          <mxGeometry relative="1" as="geometry">
            <mxPoint x="170" y="200" as="sourcePoint" />
            <mxPoint x="380" y="200" as="targetPoint" />
            <Array as="points">
              <mxPoint x="219" y="200" />
              <mxPoint x="259" y="160" />
              <mxPoint x="340" y="160" />
            </Array>
          </mxGeometry>
        </mxCell>
        <mxCell id="Ig4POHQgUYnZKCr3auaQ-8" value="" style="edgeStyle=none;orthogonalLoop=1;jettySize=auto;html=1;rounded=0;labelBackgroundColor=none;endArrow=none;verticalAlign=bottom;endFill=0;endSize=12;" edge="1" parent="1">
          <mxGeometry width="100" relative="1" as="geometry">
            <mxPoint x="380" y="200" as="sourcePoint" />
            <mxPoint x="480" y="160" as="targetPoint" />
            <Array as="points">
              <mxPoint x="400" y="200" />
              <mxPoint x="440" y="160" />
            </Array>
          </mxGeometry>
        </mxCell>
        <mxCell id="Ig4POHQgUYnZKCr3auaQ-11" value="" style="endArrow=none;html=1;rounded=0;align=center;verticalAlign=bottom;endFill=0;labelBackgroundColor=none;strokeColor=default;fontFamily=Helvetica;fontSize=11;fontColor=default;endSize=12;shape=connector;" edge="1" parent="1">
          <mxGeometry relative="1" as="geometry">
            <mxPoint x="170" y="160" as="sourcePoint" />
            <mxPoint x="380" y="160" as="targetPoint" />
            <Array as="points">
              <mxPoint x="219" y="160" />
              <mxPoint x="259" y="200" />
              <mxPoint x="340" y="200" />
            </Array>
          </mxGeometry>
        </mxCell>
        <mxCell id="Ig4POHQgUYnZKCr3auaQ-12" value="" style="edgeStyle=none;orthogonalLoop=1;jettySize=auto;html=1;rounded=0;labelBackgroundColor=none;endArrow=none;verticalAlign=bottom;endFill=0;endSize=12;" edge="1" parent="1">
          <mxGeometry width="100" relative="1" as="geometry">
            <mxPoint x="380" y="160" as="sourcePoint" />
            <mxPoint x="480" y="200" as="targetPoint" />
            <Array as="points">
              <mxPoint x="400" y="160" />
              <mxPoint x="440" y="200" />
            </Array>
          </mxGeometry>
        </mxCell>
        <mxCell id="Ig4POHQgUYnZKCr3auaQ-14" value="Idle" style="text;html=1;align=center;verticalAlign=middle;resizable=0;points=[];autosize=1;strokeColor=none;fillColor=none;fontSize=14;" vertex="1" parent="1">
          <mxGeometry x="444" y="164" width="50" height="30" as="geometry" />
        </mxCell>
        <mxCell id="Ig4POHQgUYnZKCr3auaQ-15" value="&lt;b&gt;Figure 17.29 Compact Lifeline with States&lt;/b&gt;" style="text;html=1;align=left;verticalAlign=middle;resizable=0;points=[];autosize=1;strokeColor=none;fillColor=none;fontSize=11;fontFamily=Helvetica;fontColor=default;" vertex="1" parent="1">
          <mxGeometry y="230" width="240" height="30" as="geometry" />
        </mxCell>
        <mxCell id="Ig4POHQgUYnZKCr3auaQ-16" value="annotation" parent="0" />
        <mxCell id="Ig4POHQgUYnZKCr3auaQ-17" value="" style="rounded=0;orthogonalLoop=1;jettySize=auto;html=1;endArrow=blockThin;endFill=0;endSize=12;strokeColor=#FF0000;exitX=0.45;exitY=1;exitDx=0;exitDy=0;exitPerimeter=0;" edge="1" source="Ig4POHQgUYnZKCr3auaQ-18" parent="Ig4POHQgUYnZKCr3auaQ-16">
          <mxGeometry relative="1" as="geometry">
            <mxPoint x="120" y="163" as="targetPoint" />
            <mxPoint x="50" y="60" as="sourcePoint" />
          </mxGeometry>
        </mxCell>
        <mxCell id="Ig4POHQgUYnZKCr3auaQ-18" value="Lifeline" style="text;html=1;align=left;verticalAlign=middle;resizable=0;points=[];autosize=1;strokeColor=none;fillColor=none;fontColor=#FF0000;fontStyle=2;fontSize=12;container=0;" vertex="1" parent="Ig4POHQgUYnZKCr3auaQ-16">
          <mxGeometry x="10" y="40" width="60" height="30" as="geometry" />
        </mxCell>
        <mxCell id="Ig4POHQgUYnZKCr3auaQ-19" value="State or condition" style="text;html=1;align=left;verticalAlign=middle;resizable=0;points=[];autosize=1;strokeColor=none;fillColor=none;fontColor=#FF0000;fontStyle=2;fontSize=12;container=0;" vertex="1" parent="Ig4POHQgUYnZKCr3auaQ-16">
          <mxGeometry x="190" y="40" width="120" height="30" as="geometry" />
        </mxCell>
        <mxCell id="Ig4POHQgUYnZKCr3auaQ-20" value="" style="rounded=0;orthogonalLoop=1;jettySize=auto;html=1;endArrow=blockThin;endFill=0;endSize=12;strokeColor=#FF0000;" edge="1" source="Ig4POHQgUYnZKCr3auaQ-19" parent="Ig4POHQgUYnZKCr3auaQ-16">
          <mxGeometry relative="1" as="geometry">
            <mxPoint x="203" y="166" as="targetPoint" />
            <mxPoint x="266" y="60" as="sourcePoint" />
          </mxGeometry>
        </mxCell>
        <mxCell id="Wo0PoCsMhngo08fUCxCb-1" value="DurationConstraint" style="text;html=1;align=left;verticalAlign=middle;resizable=0;points=[];autosize=1;strokeColor=none;fillColor=none;fontColor=#FF0000;fontStyle=2;fontSize=12;container=0;" vertex="1" parent="Ig4POHQgUYnZKCr3auaQ-16">
          <mxGeometry x="324" y="40" width="120" height="30" as="geometry" />
        </mxCell>
        <mxCell id="Wo0PoCsMhngo08fUCxCb-2" value="" style="rounded=0;orthogonalLoop=1;jettySize=auto;html=1;endArrow=blockThin;endFill=0;endSize=12;strokeColor=#FF0000;" edge="1" parent="Ig4POHQgUYnZKCr3auaQ-16">
          <mxGeometry relative="1" as="geometry">
            <mxPoint x="306" y="102" as="targetPoint" />
            <mxPoint x="370" y="70" as="sourcePoint" />
          </mxGeometry>
        </mxCell>
      </root>
    </mxGraphModel>
  </diagram>
  <diagram id="ztikP0-THc0qYL7pBmX_" name="17.30">
    <mxGraphModel dx="2049" dy="545" grid="1" gridSize="10" guides="1" tooltips="1" connect="1" arrows="1" fold="1" page="1" pageScale="1" pageWidth="1169" pageHeight="827" math="0" shadow="0">
      <root>
        <mxCell id="0" />
        <mxCell id="1" value="uml" parent="0" />
        <mxCell id="rHWPaLKV7430Heq37ULo-1" value="&lt;b&gt;sd&lt;/b&gt; UserAcc_User" style="shape=umlFrame;whiteSpace=wrap;html=1;pointerEvents=0;recursiveResize=0;container=1;collapsible=0;width=130;height=30;" vertex="1" parent="1">
          <mxGeometry x="120" y="80" width="440" height="390" as="geometry" />
        </mxCell>
        <mxCell id="rHWPaLKV7430Heq37ULo-2" value=":User" style="text;html=1;align=center;verticalAlign=middle;resizable=0;points=[];autosize=1;strokeColor=none;fillColor=none;rotation=270;fontStyle=1" vertex="1" parent="rHWPaLKV7430Heq37ULo-1">
          <mxGeometry y="120" width="50" height="30" as="geometry" />
        </mxCell>
        <mxCell id="rHWPaLKV7430Heq37ULo-3" value="" style="edgeStyle=segmentEdgeStyle;endArrow=none;html=1;curved=0;rounded=0;endSize=8;startSize=8;sourcePerimeterSpacing=0;targetPerimeterSpacing=0;endFill=0;" edge="1" parent="rHWPaLKV7430Heq37ULo-1">
          <mxGeometry width="100" relative="1" as="geometry">
            <mxPoint x="140" y="190" as="sourcePoint" />
            <mxPoint x="420" y="190" as="targetPoint" />
            <Array as="points">
              <mxPoint x="190" y="190" />
              <mxPoint x="190" y="140" />
              <mxPoint x="300" y="140" />
              <mxPoint x="300" y="80" />
              <mxPoint x="340" y="80" />
              <mxPoint x="340" y="190" />
              <mxPoint x="420" y="190" />
            </Array>
          </mxGeometry>
        </mxCell>
        <mxCell id="rHWPaLKV7430Heq37ULo-4" value="WaitAccess" style="text;html=1;align=center;verticalAlign=middle;resizable=0;points=[];autosize=1;strokeColor=none;fillColor=none;fontSize=14;" vertex="1" parent="rHWPaLKV7430Heq37ULo-1">
          <mxGeometry x="35" y="70" width="100" height="30" as="geometry" />
        </mxCell>
        <mxCell id="rHWPaLKV7430Heq37ULo-5" value="WaitCard" style="text;html=1;align=center;verticalAlign=middle;resizable=0;points=[];autosize=1;strokeColor=none;fillColor=none;fontSize=14;" vertex="1" parent="rHWPaLKV7430Heq37ULo-1">
          <mxGeometry x="45" y="125" width="80" height="30" as="geometry" />
        </mxCell>
        <mxCell id="rHWPaLKV7430Heq37ULo-6" value="Idle" style="text;html=1;align=center;verticalAlign=middle;resizable=0;points=[];autosize=1;strokeColor=none;fillColor=none;fontSize=14;" vertex="1" parent="rHWPaLKV7430Heq37ULo-1">
          <mxGeometry x="60" y="176" width="50" height="30" as="geometry" />
        </mxCell>
        <mxCell id="rHWPaLKV7430Heq37ULo-7" value="Code" style="text;html=1;align=center;verticalAlign=middle;resizable=0;points=[];autosize=1;strokeColor=none;fillColor=none;" vertex="1" parent="rHWPaLKV7430Heq37ULo-1">
          <mxGeometry x="190" y="207" width="50" height="30" as="geometry" />
        </mxCell>
        <mxCell id="rHWPaLKV7430Heq37ULo-8" value="CardOut&lt;br&gt;{0..13}" style="text;html=1;align=left;verticalAlign=top;resizable=0;points=[];autosize=1;strokeColor=none;fillColor=none;" vertex="1" parent="rHWPaLKV7430Heq37ULo-1">
          <mxGeometry x="220" y="155" width="70" height="40" as="geometry" />
        </mxCell>
        <mxCell id="rHWPaLKV7430Heq37ULo-9" value="{t..t+3}" style="text;html=1;align=center;verticalAlign=middle;resizable=0;points=[];autosize=1;strokeColor=none;fillColor=none;" vertex="1" parent="rHWPaLKV7430Heq37ULo-1">
          <mxGeometry x="354" y="137" width="60" height="30" as="geometry" />
        </mxCell>
        <mxCell id="rHWPaLKV7430Heq37ULo-29" value=":ACSystem" style="text;html=1;align=center;verticalAlign=middle;resizable=0;points=[];autosize=1;strokeColor=none;fillColor=none;rotation=270;fontStyle=1" vertex="1" parent="rHWPaLKV7430Heq37ULo-1">
          <mxGeometry x="-20" y="300" width="90" height="30" as="geometry" />
        </mxCell>
        <mxCell id="rHWPaLKV7430Heq37ULo-30" value="NoCard" style="text;html=1;align=center;verticalAlign=middle;resizable=0;points=[];autosize=1;strokeColor=none;fillColor=none;fontSize=14;" vertex="1" parent="rHWPaLKV7430Heq37ULo-1">
          <mxGeometry x="50" y="256" width="70" height="30" as="geometry" />
        </mxCell>
        <mxCell id="rHWPaLKV7430Heq37ULo-31" value="HasCard" style="text;html=1;align=center;verticalAlign=middle;resizable=0;points=[];autosize=1;strokeColor=none;fillColor=none;fontSize=14;" vertex="1" parent="rHWPaLKV7430Heq37ULo-1">
          <mxGeometry x="45" y="306" width="80" height="30" as="geometry" />
        </mxCell>
        <mxCell id="rHWPaLKV7430Heq37ULo-32" value="" style="edgeStyle=segmentEdgeStyle;endArrow=none;html=1;curved=0;rounded=0;endSize=8;startSize=8;sourcePerimeterSpacing=0;targetPerimeterSpacing=0;endFill=0;" edge="1" parent="rHWPaLKV7430Heq37ULo-1">
          <mxGeometry width="100" relative="1" as="geometry">
            <mxPoint x="140" y="270" as="sourcePoint" />
            <mxPoint x="420" y="270" as="targetPoint" />
            <Array as="points">
              <mxPoint x="210" y="270" />
              <mxPoint x="210" y="320" />
              <mxPoint x="320" y="320" />
              <mxPoint x="320" y="270" />
            </Array>
          </mxGeometry>
        </mxCell>
        <mxCell id="rWFZxiglpLQS8mA6ok6L-3" value="OK" style="text;html=1;align=center;verticalAlign=middle;resizable=0;points=[];autosize=1;strokeColor=none;fillColor=none;" vertex="1" parent="rHWPaLKV7430Heq37ULo-1">
          <mxGeometry x="289" y="204" width="40" height="30" as="geometry" />
        </mxCell>
        <mxCell id="rHWPaLKV7430Heq37ULo-10" value="{d..3*d}" style="edgeStyle=none;orthogonalLoop=1;jettySize=auto;html=1;endArrow=openThin;startArrow=openThin;endSize=8;startSize=8;rounded=0;verticalAlign=bottom;endFill=0;startFill=0;" edge="1" parent="1">
          <mxGeometry width="100" relative="1" as="geometry">
            <mxPoint x="310" y="140" as="sourcePoint" />
            <mxPoint x="420" y="140" as="targetPoint" />
            <Array as="points" />
          </mxGeometry>
        </mxCell>
        <mxCell id="rHWPaLKV7430Heq37ULo-11" value="" style="edgeStyle=none;orthogonalLoop=1;jettySize=auto;html=1;rounded=0;endArrow=none;endFill=0;" edge="1" parent="1">
          <mxGeometry width="100" relative="1" as="geometry">
            <mxPoint x="420" y="123" as="sourcePoint" />
            <mxPoint x="420" y="153" as="targetPoint" />
            <Array as="points" />
          </mxGeometry>
        </mxCell>
        <mxCell id="rHWPaLKV7430Heq37ULo-12" value="" style="edgeStyle=none;orthogonalLoop=1;jettySize=auto;html=1;rounded=0;endArrow=none;endFill=0;" edge="1" parent="1">
          <mxGeometry width="100" relative="1" as="geometry">
            <mxPoint x="310" y="123" as="sourcePoint" />
            <mxPoint x="310" y="153" as="targetPoint" />
            <Array as="points" />
          </mxGeometry>
        </mxCell>
        <mxCell id="rHWPaLKV7430Heq37ULo-13" value="" style="edgeStyle=none;orthogonalLoop=1;jettySize=auto;html=1;rounded=0;endArrow=none;endFill=0;" edge="1" parent="1">
          <mxGeometry width="100" relative="1" as="geometry">
            <mxPoint x="420" y="456" as="sourcePoint" />
            <mxPoint x="420" y="486" as="targetPoint" />
            <Array as="points" />
          </mxGeometry>
        </mxCell>
        <mxCell id="rHWPaLKV7430Heq37ULo-14" value="" style="edgeStyle=none;orthogonalLoop=1;jettySize=auto;html=1;rounded=0;endArrow=none;endFill=0;" edge="1" parent="1">
          <mxGeometry width="100" relative="1" as="geometry">
            <mxPoint x="460" y="456" as="sourcePoint" />
            <mxPoint x="460" y="486" as="targetPoint" />
            <Array as="points" />
          </mxGeometry>
        </mxCell>
        <mxCell id="rHWPaLKV7430Heq37ULo-15" value="" style="edgeStyle=none;orthogonalLoop=1;jettySize=auto;html=1;rounded=0;endArrow=none;endFill=0;" edge="1" parent="1">
          <mxGeometry width="100" relative="1" as="geometry">
            <mxPoint x="480" y="456" as="sourcePoint" />
            <mxPoint x="480" y="486" as="targetPoint" />
            <Array as="points" />
          </mxGeometry>
        </mxCell>
        <mxCell id="rHWPaLKV7430Heq37ULo-16" value="" style="edgeStyle=none;orthogonalLoop=1;jettySize=auto;html=1;rounded=0;endArrow=none;endFill=0;" edge="1" parent="1">
          <mxGeometry width="100" relative="1" as="geometry">
            <mxPoint x="440" y="456" as="sourcePoint" />
            <mxPoint x="440" y="486" as="targetPoint" />
            <Array as="points" />
          </mxGeometry>
        </mxCell>
        <mxCell id="rHWPaLKV7430Heq37ULo-17" value="t" style="text;html=1;align=center;verticalAlign=middle;resizable=0;points=[];autosize=1;strokeColor=none;fillColor=none;" vertex="1" parent="1">
          <mxGeometry x="425" y="483" width="30" height="30" as="geometry" />
        </mxCell>
        <mxCell id="rHWPaLKV7430Heq37ULo-18" value="" style="edgeStyle=none;orthogonalLoop=1;jettySize=auto;html=1;rounded=0;endArrow=none;endFill=0;" edge="1" parent="1">
          <mxGeometry width="100" relative="1" as="geometry">
            <mxPoint x="290" y="456" as="sourcePoint" />
            <mxPoint x="290" y="486" as="targetPoint" />
            <Array as="points" />
          </mxGeometry>
        </mxCell>
        <mxCell id="rHWPaLKV7430Heq37ULo-19" value="" style="edgeStyle=none;orthogonalLoop=1;jettySize=auto;html=1;rounded=0;endArrow=none;endFill=0;" edge="1" parent="1">
          <mxGeometry width="100" relative="1" as="geometry">
            <mxPoint x="310" y="456" as="sourcePoint" />
            <mxPoint x="310" y="486" as="targetPoint" />
            <Array as="points" />
          </mxGeometry>
        </mxCell>
        <mxCell id="rHWPaLKV7430Heq37ULo-20" value="" style="edgeStyle=none;orthogonalLoop=1;jettySize=auto;html=1;rounded=0;endArrow=none;endFill=0;" edge="1" parent="1">
          <mxGeometry width="100" relative="1" as="geometry">
            <mxPoint x="270" y="456" as="sourcePoint" />
            <mxPoint x="270" y="486" as="targetPoint" />
            <Array as="points" />
          </mxGeometry>
        </mxCell>
        <mxCell id="rHWPaLKV7430Heq37ULo-21" value="0" style="text;html=1;align=center;verticalAlign=middle;resizable=0;points=[];autosize=1;strokeColor=none;fillColor=none;" vertex="1" parent="1">
          <mxGeometry x="255" y="488" width="30" height="30" as="geometry" />
        </mxCell>
        <mxCell id="rHWPaLKV7430Heq37ULo-22" value="1" style="text;html=1;align=center;verticalAlign=middle;resizable=0;points=[];autosize=1;strokeColor=none;fillColor=none;" vertex="1" parent="1">
          <mxGeometry x="275" y="488" width="30" height="30" as="geometry" />
        </mxCell>
        <mxCell id="rHWPaLKV7430Heq37ULo-23" value="2" style="text;html=1;align=center;verticalAlign=middle;resizable=0;points=[];autosize=1;strokeColor=none;fillColor=none;" vertex="1" parent="1">
          <mxGeometry x="295" y="488" width="30" height="30" as="geometry" />
        </mxCell>
        <mxCell id="rHWPaLKV7430Heq37ULo-24" value="&lt;b&gt;Figure 17.30 Timing Diagram with more than one Lifeline and with Messages&lt;/b&gt;" style="text;html=1;align=left;verticalAlign=middle;resizable=0;points=[];autosize=1;strokeColor=none;fillColor=none;fontSize=11;fontFamily=Helvetica;fontColor=default;" vertex="1" parent="1">
          <mxGeometry x="10" y="510" width="420" height="30" as="geometry" />
        </mxCell>
        <mxCell id="rHWPaLKV7430Heq37ULo-25" value="" style="endArrow=none;html=1;rounded=0;align=center;verticalAlign=bottom;endFill=0;labelBackgroundColor=none;strokeColor=default;fontFamily=Helvetica;fontSize=11;fontColor=default;endSize=12;shape=connector;" edge="1" parent="1">
          <mxGeometry relative="1" as="geometry">
            <mxPoint x="490" y="240" as="sourcePoint" />
            <mxPoint x="460" y="270" as="targetPoint" />
          </mxGeometry>
        </mxCell>
        <mxCell id="rHWPaLKV7430Heq37ULo-26" value="" style="edgeStyle=none;orthogonalLoop=1;jettySize=auto;html=1;rounded=0;endArrow=none;endFill=0;" edge="1" parent="1">
          <mxGeometry width="100" relative="1" as="geometry">
            <mxPoint x="330" y="456" as="sourcePoint" />
            <mxPoint x="330" y="486" as="targetPoint" />
            <Array as="points" />
          </mxGeometry>
        </mxCell>
        <mxCell id="rHWPaLKV7430Heq37ULo-28" value="" style="edgeStyle=none;orthogonalLoop=1;jettySize=auto;html=1;rounded=0;endArrow=none;endFill=0;strokeWidth=2;" edge="1" parent="1">
          <mxGeometry width="100" relative="1" as="geometry">
            <mxPoint x="120" y="320" as="sourcePoint" />
            <mxPoint x="560" y="320" as="targetPoint" />
            <Array as="points" />
          </mxGeometry>
        </mxCell>
        <mxCell id="rHWPaLKV7430Heq37ULo-33" value="t=now" style="text;html=1;align=center;verticalAlign=middle;resizable=0;points=[];autosize=1;strokeColor=none;fillColor=none;" vertex="1" parent="1">
          <mxGeometry x="390" y="418" width="60" height="30" as="geometry" />
        </mxCell>
        <mxCell id="rHWPaLKV7430Heq37ULo-34" value="" style="endArrow=open;html=1;rounded=0;align=center;verticalAlign=bottom;endFill=0;labelBackgroundColor=none;strokeColor=default;fontFamily=Helvetica;fontSize=11;fontColor=default;endSize=12;shape=connector;" edge="1" parent="1">
          <mxGeometry relative="1" as="geometry">
            <mxPoint x="310" y="270" as="sourcePoint" />
            <mxPoint x="330" y="350" as="targetPoint" />
          </mxGeometry>
        </mxCell>
        <mxCell id="rHWPaLKV7430Heq37ULo-35" value="" style="endArrow=open;html=1;rounded=0;align=center;verticalAlign=bottom;endFill=0;labelBackgroundColor=none;strokeColor=default;fontFamily=Helvetica;fontSize=11;fontColor=default;endSize=12;shape=connector;" edge="1" parent="1">
          <mxGeometry relative="1" as="geometry">
            <mxPoint x="360" y="400" as="sourcePoint" />
            <mxPoint x="420" y="220" as="targetPoint" />
          </mxGeometry>
        </mxCell>
        <mxCell id="rHWPaLKV7430Heq37ULo-36" value="" style="endArrow=open;html=1;rounded=0;align=center;verticalAlign=bottom;endFill=0;labelBackgroundColor=none;strokeColor=default;fontFamily=Helvetica;fontSize=11;fontColor=default;endSize=12;shape=connector;" edge="1" parent="1">
          <mxGeometry relative="1" as="geometry">
            <mxPoint x="380" y="400" as="sourcePoint" />
            <mxPoint x="460" y="160" as="targetPoint" />
          </mxGeometry>
        </mxCell>
        <mxCell id="rHWPaLKV7430Heq37ULo-37" value="" style="endArrow=none;html=1;rounded=0;align=center;verticalAlign=bottom;endFill=0;labelBackgroundColor=none;strokeColor=default;fontFamily=Helvetica;fontSize=11;fontColor=default;endSize=12;shape=connector;" edge="1" parent="1" target="rHWPaLKV7430Heq37ULo-33">
          <mxGeometry relative="1" as="geometry">
            <mxPoint x="380" y="400" as="sourcePoint" />
            <mxPoint x="470" y="170" as="targetPoint" />
          </mxGeometry>
        </mxCell>
        <mxCell id="rHWPaLKV7430Heq37ULo-38" value="d" style="text;html=1;align=center;verticalAlign=middle;resizable=0;points=[];autosize=1;strokeColor=none;fillColor=none;" vertex="1" parent="1">
          <mxGeometry x="305" y="428" width="30" height="30" as="geometry" />
        </mxCell>
        <mxCell id="rWFZxiglpLQS8mA6ok6L-8" value="Unlock" style="text;html=1;align=center;verticalAlign=middle;resizable=0;points=[];autosize=1;strokeColor=none;fillColor=none;" vertex="1" parent="1">
          <mxGeometry x="469" y="374" width="60" height="30" as="geometry" />
        </mxCell>
        <mxCell id="rWFZxiglpLQS8mA6ok6L-9" value="" style="endArrow=open;html=1;rounded=0;align=center;verticalAlign=bottom;endFill=0;labelBackgroundColor=none;strokeColor=default;fontFamily=Helvetica;fontSize=11;fontColor=default;endSize=12;shape=connector;" edge="1" parent="1">
          <mxGeometry relative="1" as="geometry">
            <mxPoint x="440" y="400" as="sourcePoint" />
            <mxPoint x="560" y="400" as="targetPoint" />
          </mxGeometry>
        </mxCell>
        <mxCell id="vNnPScInYoTAEcIxa3je-1" value="annotation" parent="0" />
        <mxCell id="vNnPScInYoTAEcIxa3je-2" value="" style="rounded=0;orthogonalLoop=1;jettySize=auto;html=1;endArrow=blockThin;endFill=0;endSize=12;strokeColor=#FF0000;exitX=0.45;exitY=1;exitDx=0;exitDy=0;exitPerimeter=0;" edge="1" parent="vNnPScInYoTAEcIxa3je-1" source="vNnPScInYoTAEcIxa3je-3">
          <mxGeometry relative="1" as="geometry">
            <mxPoint x="141" y="192" as="targetPoint" />
            <mxPoint x="50" y="60" as="sourcePoint" />
          </mxGeometry>
        </mxCell>
        <mxCell id="vNnPScInYoTAEcIxa3je-3" value="Lifelines" style="text;html=1;align=left;verticalAlign=middle;resizable=0;points=[];autosize=1;strokeColor=none;fillColor=none;fontColor=#FF0000;fontStyle=2;fontSize=12;container=0;" vertex="1" parent="vNnPScInYoTAEcIxa3je-1">
          <mxGeometry x="10" y="40" width="70" height="30" as="geometry" />
        </mxCell>
        <mxCell id="vNnPScInYoTAEcIxa3je-4" value="" style="rounded=0;orthogonalLoop=1;jettySize=auto;html=1;endArrow=blockThin;endFill=0;endSize=12;strokeColor=#FF0000;exitX=0.471;exitY=1.033;exitDx=0;exitDy=0;exitPerimeter=0;" edge="1" parent="vNnPScInYoTAEcIxa3je-1" source="vNnPScInYoTAEcIxa3je-3">
          <mxGeometry relative="1" as="geometry">
            <mxPoint x="133" y="356" as="targetPoint" />
            <mxPoint x="52" y="80" as="sourcePoint" />
          </mxGeometry>
        </mxCell>
        <mxCell id="6zOvMVR7DNXUAaakF8Od-1" value="State or condition" style="text;html=1;align=left;verticalAlign=middle;resizable=0;points=[];autosize=1;strokeColor=none;fillColor=none;fontColor=#FF0000;fontStyle=2;fontSize=12;container=0;" vertex="1" parent="vNnPScInYoTAEcIxa3je-1">
          <mxGeometry x="130" y="10" width="120" height="30" as="geometry" />
        </mxCell>
        <mxCell id="6zOvMVR7DNXUAaakF8Od-2" value="" style="rounded=0;orthogonalLoop=1;jettySize=auto;html=1;endArrow=blockThin;endFill=0;endSize=12;strokeColor=#FF0000;" edge="1" parent="vNnPScInYoTAEcIxa3je-1" source="6zOvMVR7DNXUAaakF8Od-1">
          <mxGeometry relative="1" as="geometry">
            <mxPoint x="202" y="148" as="targetPoint" />
            <mxPoint x="206" y="30" as="sourcePoint" />
          </mxGeometry>
        </mxCell>
        <mxCell id="dIt47GS0gzc9BiLB9Om2-1" value="DurationConstraints" style="text;html=1;align=left;verticalAlign=middle;resizable=0;points=[];autosize=1;strokeColor=none;fillColor=none;fontColor=#FF0000;fontStyle=2;fontSize=12;container=0;" vertex="1" parent="vNnPScInYoTAEcIxa3je-1">
          <mxGeometry x="250" y="10" width="130" height="30" as="geometry" />
        </mxCell>
        <mxCell id="dIt47GS0gzc9BiLB9Om2-2" value="" style="rounded=0;orthogonalLoop=1;jettySize=auto;html=1;endArrow=blockThin;endFill=0;endSize=12;strokeColor=#FF0000;exitX=0.654;exitY=0.933;exitDx=0;exitDy=0;exitPerimeter=0;" edge="1" parent="vNnPScInYoTAEcIxa3je-1" source="dIt47GS0gzc9BiLB9Om2-1">
          <mxGeometry relative="1" as="geometry">
            <mxPoint x="362" y="121" as="targetPoint" />
            <mxPoint x="370" y="70" as="sourcePoint" />
          </mxGeometry>
        </mxCell>
        <mxCell id="dIt47GS0gzc9BiLB9Om2-3" value="" style="rounded=0;orthogonalLoop=1;jettySize=auto;html=1;endArrow=blockThin;endFill=0;endSize=12;strokeColor=#FF0000;exitX=0.654;exitY=0.933;exitDx=0;exitDy=0;exitPerimeter=0;" edge="1" parent="vNnPScInYoTAEcIxa3je-1">
          <mxGeometry relative="1" as="geometry">
            <mxPoint x="354" y="254" as="targetPoint" />
            <mxPoint x="275" y="38" as="sourcePoint" />
          </mxGeometry>
        </mxCell>
        <mxCell id="rWFZxiglpLQS8mA6ok6L-1" value="Time Constraint" style="text;html=1;align=left;verticalAlign=middle;resizable=0;points=[];autosize=1;strokeColor=none;fillColor=none;fontColor=#FF0000;fontStyle=2;fontSize=12;container=0;" vertex="1" parent="vNnPScInYoTAEcIxa3je-1">
          <mxGeometry x="590" y="170" width="110" height="30" as="geometry" />
        </mxCell>
        <mxCell id="rWFZxiglpLQS8mA6ok6L-2" value="" style="rounded=0;orthogonalLoop=1;jettySize=auto;html=1;endArrow=blockThin;endFill=0;endSize=12;strokeColor=#FF0000;" edge="1" parent="vNnPScInYoTAEcIxa3je-1" source="rWFZxiglpLQS8mA6ok6L-1">
          <mxGeometry relative="1" as="geometry">
            <mxPoint x="536" y="232" as="targetPoint" />
            <mxPoint x="416" y="60" as="sourcePoint" />
          </mxGeometry>
        </mxCell>
        <mxCell id="rWFZxiglpLQS8mA6ok6L-4" value="Time Observation" style="text;html=1;align=left;verticalAlign=middle;resizable=0;points=[];autosize=1;strokeColor=none;fillColor=none;fontColor=#FF0000;fontStyle=2;fontSize=12;container=0;" vertex="1" parent="vNnPScInYoTAEcIxa3je-1">
          <mxGeometry x="590" y="450" width="120" height="30" as="geometry" />
        </mxCell>
        <mxCell id="rWFZxiglpLQS8mA6ok6L-5" value="" style="rounded=0;orthogonalLoop=1;jettySize=auto;html=1;endArrow=blockThin;endFill=0;endSize=12;strokeColor=#FF0000;exitX=-0.042;exitY=0.533;exitDx=0;exitDy=0;exitPerimeter=0;" edge="1" source="rWFZxiglpLQS8mA6ok6L-4" parent="vNnPScInYoTAEcIxa3je-1">
          <mxGeometry relative="1" as="geometry">
            <mxPoint x="446" y="433" as="targetPoint" />
            <mxPoint x="416" y="340" as="sourcePoint" />
          </mxGeometry>
        </mxCell>
        <mxCell id="rWFZxiglpLQS8mA6ok6L-10" value="Message" style="text;html=1;align=left;verticalAlign=middle;resizable=0;points=[];autosize=1;strokeColor=none;fillColor=none;fontColor=#FF0000;fontStyle=2;fontSize=12;container=0;" vertex="1" parent="vNnPScInYoTAEcIxa3je-1">
          <mxGeometry x="590" y="290" width="70" height="30" as="geometry" />
        </mxCell>
        <mxCell id="rWFZxiglpLQS8mA6ok6L-11" value="" style="rounded=0;orthogonalLoop=1;jettySize=auto;html=1;endArrow=blockThin;endFill=0;endSize=12;strokeColor=#FF0000;" edge="1" source="rWFZxiglpLQS8mA6ok6L-10" parent="vNnPScInYoTAEcIxa3je-1">
          <mxGeometry relative="1" as="geometry">
            <mxPoint x="442" y="300" as="targetPoint" />
            <mxPoint x="416" y="180" as="sourcePoint" />
          </mxGeometry>
        </mxCell>
        <mxCell id="rWFZxiglpLQS8mA6ok6L-12" value="Duration Observation" style="text;html=1;align=right;verticalAlign=middle;resizable=0;points=[];autosize=1;strokeColor=none;fillColor=none;fontColor=#FF0000;fontStyle=2;fontSize=12;container=0;" vertex="1" parent="vNnPScInYoTAEcIxa3je-1">
          <mxGeometry x="-20" y="370" width="140" height="30" as="geometry" />
        </mxCell>
        <mxCell id="rWFZxiglpLQS8mA6ok6L-13" value="" style="rounded=0;orthogonalLoop=1;jettySize=auto;html=1;endArrow=blockThin;endFill=0;endSize=12;strokeColor=#FF0000;exitX=0.7;exitY=0.967;exitDx=0;exitDy=0;exitPerimeter=0;" edge="1" parent="vNnPScInYoTAEcIxa3je-1" source="rWFZxiglpLQS8mA6ok6L-12">
          <mxGeometry relative="1" as="geometry">
            <mxPoint x="312" y="441" as="targetPoint" />
            <mxPoint x="285" y="48" as="sourcePoint" />
          </mxGeometry>
        </mxCell>
      </root>
    </mxGraphModel>
  </diagram>
</mxfile>
